<svg width="46" height="46" viewBox="0 0 46 46" fill="none" xmlns="http://www.w3.org/2000/svg">
<rect width="46" height="46" rx="23" fill="#DBEBFF"/>
<path d="M18.6089 10.9892C20.4816 10.1229 21.6929 9.5625 23 9.5625C24.3071 9.5625 25.5184 10.1229 27.3911 10.9892L27.5896 11.081L29.7951 12.1005C31.3727 12.8297 32.6535 13.4216 33.5312 13.9939C34.4095 14.5664 35.1875 15.3118 35.1875 16.4375C35.1875 17.5632 34.4095 18.3086 33.5312 18.8811C32.6535 19.4534 31.3729 20.0453 29.7951 20.7745L27.5896 21.794L27.3911 21.8857C25.5184 22.7521 24.3071 23.3125 23 23.3125C21.6929 23.3125 20.4816 22.7521 18.6088 21.8857L18.4104 21.794L16.2049 20.7745C14.6272 20.0453 13.3465 19.4534 12.4687 18.8811C11.5905 18.3086 10.8125 17.5632 10.8125 16.4375C10.8125 15.3118 11.5905 14.5664 12.4687 13.9939C13.3465 13.4216 14.6272 12.8297 16.2049 12.1005L18.4104 11.081L18.6089 10.9892Z" fill="#4093FF"/>
<path fill-rule="evenodd" clip-rule="evenodd" d="M13.7443 27.2407C14.1636 27.7807 14.0767 28.5672 13.5502 28.9974C13.368 29.1462 13.2935 29.2455 13.2655 29.2932C13.249 29.3214 13.2495 29.3277 13.2499 29.3321C13.25 29.3327 13.25 29.3334 13.25 29.334C13.25 29.3427 13.2507 29.3445 13.2512 29.3459C13.2512 29.3457 13.2513 29.3461 13.2512 29.3459C13.2526 29.3497 13.2618 29.3744 13.2964 29.4205C13.3749 29.5249 13.5441 29.689 13.89 29.917C14.5978 30.3836 15.6987 30.9016 17.3362 31.6669L19.414 32.6379C21.5281 33.6259 22.2556 33.9369 23 33.9369C23.7444 33.9369 24.4719 33.6259 26.586 32.6379L28.6637 31.6669C30.3013 30.9016 31.4021 30.3835 32.11 29.917C32.4559 29.689 32.6251 29.5249 32.7036 29.4205C32.7382 29.3744 32.7473 29.3502 32.7486 29.3464C32.7485 29.3466 32.7486 29.3462 32.7486 29.3464C32.7491 29.345 32.75 29.3427 32.75 29.334C32.75 29.3334 32.75 29.3327 32.7501 29.3321C32.7505 29.3277 32.751 29.3214 32.7345 29.2932C32.7065 29.2455 32.632 29.1462 32.4497 28.9974C31.9232 28.5672 31.8364 27.7807 32.2558 27.2407C32.6751 26.7007 33.4419 26.6117 33.9684 27.0419C34.6222 27.576 35.1875 28.3105 35.1875 29.334C35.1875 30.6271 34.298 31.4465 33.4277 32.0202C32.5534 32.5965 31.2881 33.1877 29.7673 33.8985L27.5968 34.9127C27.5179 34.9496 27.4403 34.986 27.3635 35.0219C25.5774 35.8577 24.3398 36.4369 23 36.4369C21.6602 36.4369 20.4226 35.8577 18.6365 35.0219C18.5598 34.986 18.4821 34.9496 18.4033 34.9127L16.2328 33.8985C14.7119 33.1877 13.4466 32.5965 12.5723 32.0202C11.702 31.4465 10.8125 30.6271 10.8125 29.334C10.8125 28.3105 11.3778 27.576 12.0316 27.0419C12.5581 26.6117 13.3249 26.7007 13.7443 27.2407Z" fill="black"/>
<path fill-rule="evenodd" clip-rule="evenodd" d="M13.7443 20.8296C14.1636 21.3696 14.0767 22.1561 13.5502 22.5863C13.368 22.7351 13.2935 22.8344 13.2655 22.8821C13.249 22.9101 13.2495 22.9165 13.2499 22.921C13.25 22.9216 13.25 22.9223 13.25 22.9229C13.25 22.9316 13.2507 22.9334 13.2512 22.9348C13.2512 22.9346 13.2513 22.935 13.2512 22.9348C13.2526 22.9386 13.2618 22.9633 13.2964 23.0094C13.3749 23.1138 13.5441 23.2779 13.89 23.5059C14.5978 23.9724 15.6987 24.4904 17.3362 25.2558L19.414 26.2268C21.5281 27.2148 22.2556 27.5258 23 27.5258C23.7444 27.5258 24.4719 27.2148 26.586 26.2268L28.6637 25.2558C30.3013 24.4904 31.4021 23.9724 32.11 23.5059C32.4559 23.2779 32.6251 23.1138 32.7036 23.0094C32.7382 22.9633 32.7473 22.9391 32.7486 22.9353C32.7485 22.9355 32.7486 22.9351 32.7486 22.9353C32.7491 22.9339 32.75 22.9316 32.75 22.9229C32.75 22.9223 32.75 22.9216 32.7501 22.921C32.7505 22.9165 32.751 22.9101 32.7345 22.8821C32.7065 22.8344 32.632 22.7351 32.4497 22.5863C31.9232 22.1561 31.8364 21.3696 32.2558 20.8296C32.6751 20.2897 33.4419 20.2006 33.9684 20.6306C34.6222 21.1649 35.1875 21.8994 35.1875 22.9229C35.1875 24.216 34.298 25.0354 33.4277 25.609C32.5534 26.1854 31.2881 26.7766 29.7673 27.4874L27.5968 28.5016C27.5179 28.5385 27.4403 28.5749 27.3635 28.6108C25.5774 29.4466 24.3398 30.0258 23 30.0258C21.6602 30.0258 20.4226 29.4466 18.6365 28.6108C18.5598 28.5749 18.4821 28.5385 18.4033 28.5016L16.2328 27.4874C14.7119 26.7766 13.4466 26.1854 12.5723 25.609C11.702 25.0354 10.8125 24.216 10.8125 22.9229C10.8125 21.8994 11.3778 21.1649 12.0316 20.6306C12.5581 20.2006 13.3249 20.2897 13.7443 20.8296Z" fill="black"/>
</svg>
