<svg width="172" height="39" viewBox="0 0 172 39" fill="none" xmlns="http://www.w3.org/2000/svg">
<path d="M2 31.0159C9.36569 36.9085 26.037 36.4801 30.3969 27.2758C32.5012 22.8333 34.6878 17.2442 34.414 12.3155C34.2366 9.12198 23.9279 -0.517054 20.0078 2.61902C18.7722 3.60753 23.1938 10.3059 23.1938 12.5926C23.1938 15.0655 22.6388 18.0399 24.1634 20.0727C27.4389 24.44 31.4557 26.4754 35.3837 30.0463C40.3521 34.563 40.3976 37.2494 48.1276 37.2494C53.7524 37.2494 57.3821 37.4046 59.9712 31.7085C64.5913 21.5444 67.2249 9.11113 78.6023 4.97389C81.725 3.83839 87.3851 4.19115 90.5844 3.65793C94.8223 2.95163 95.502 11.2415 95.502 14.1856C95.502 18.9852 94.7925 26.0701 101.043 27.2066C109.398 28.7258 119.484 25.2257 124.73 18.549C127.581 14.9199 135.297 5.37518 139.829 3.7272C150.411 -0.120771 162.044 8.0557 170.304 13.5622" stroke="#F5F2E9" stroke-width="3" stroke-linecap="round"/>
</svg>
