<svg width="99" height="169" viewBox="0 0 99 169" fill="none" xmlns="http://www.w3.org/2000/svg">
<path d="M2 0H97V169H2V0Z" fill="#FFDC8F"/>
<circle cx="32" cy="28" r="5" fill="#1A0000"/>
<circle cx="32" cy="28" r="5" fill="#1A0000"/>
<circle cx="32" cy="28" r="5" fill="#1A0000"/>
<circle cx="37" cy="62" r="5" fill="#1A0000"/>
<circle cx="37" cy="62" r="5" fill="#1A0000"/>
<circle cx="37" cy="62" r="5" fill="#1A0000"/>
<circle cx="94" cy="47" r="5" fill="#1A0000"/>
<circle cx="94" cy="47" r="5" fill="#1A0000"/>
<circle cx="94" cy="47" r="5" fill="#1A0000"/>
<circle cx="27" cy="148" r="5" fill="#1A0000"/>
<circle cx="27" cy="148" r="5" fill="#1A0000"/>
<circle cx="27" cy="148" r="5" fill="#1A0000"/>
<circle cx="94" cy="85" r="5" fill="#1A0000"/>
<circle cx="94" cy="85" r="5" fill="#1A0000"/>
<circle cx="94" cy="85" r="5" fill="#1A0000"/>
<circle cx="74" cy="107" r="5" fill="#1A0000"/>
<circle cx="74" cy="107" r="5" fill="#1A0000"/>
<circle cx="74" cy="107" r="5" fill="#1A0000"/>
<circle cx="54" cy="128" r="5" fill="#1A0000"/>
<circle cx="54" cy="128" r="5" fill="#1A0000"/>
<circle cx="54" cy="128" r="5" fill="#1A0000"/>
<circle cx="84" cy="15" r="5" fill="#1A0000"/>
<circle cx="84" cy="15" r="5" fill="#1A0000"/>
<circle cx="84" cy="15" r="5" fill="#1A0000"/>
<circle cx="10" cy="52" r="5" fill="#1A0000"/>
<circle cx="10" cy="52" r="5" fill="#1A0000"/>
<circle cx="10" cy="52" r="5" fill="#1A0000"/>
<circle cx="52" cy="164" r="5" fill="#1A0000"/>
<circle cx="52" cy="164" r="5" fill="#1A0000"/>
<circle cx="52" cy="164" r="5" fill="#1A0000"/>
<circle cx="15" cy="118" r="5" fill="#1A0000"/>
<circle cx="15" cy="118" r="5" fill="#1A0000"/>
<circle cx="15" cy="118" r="5" fill="#1A0000"/>
<circle cx="69" cy="69" r="5" fill="#1A0000"/>
<circle cx="69" cy="69" r="5" fill="#1A0000"/>
<circle cx="69" cy="69" r="5" fill="#1A0000"/>
<circle cx="79" cy="143" r="5" fill="#1A0000"/>
<circle cx="79" cy="143" r="5" fill="#1A0000"/>
<circle cx="79" cy="143" r="5" fill="#1A0000"/>
<circle cx="42" cy="97" r="5" fill="#1A0000"/>
<circle cx="42" cy="97" r="5" fill="#1A0000"/>
<circle cx="42" cy="97" r="5" fill="#1A0000"/>
<circle cx="5" cy="85" r="5" fill="#1A0000"/>
<circle cx="5" cy="85" r="5" fill="#1A0000"/>
<circle cx="5" cy="85" r="5" fill="#1A0000"/>
<circle cx="59" cy="37" r="5" fill="#1A0000"/>
<circle cx="59" cy="37" r="5" fill="#1A0000"/>
<circle cx="59" cy="37" r="5" fill="#1A0000"/>
<circle cx="54" cy="5" r="5" fill="#1A0000"/>
<circle cx="54" cy="5" r="5" fill="#1A0000"/>
<circle cx="54" cy="5" r="5" fill="#1A0000"/>
</svg>
