<svg width="84" height="109" viewBox="0 0 84 109" fill="none" xmlns="http://www.w3.org/2000/svg">
<rect width="84" height="109" rx="10" fill="#E693E8"/>
<path d="M49 58L48.0663 57.642L49 58ZM44.3663 19.8202C43.8523 19.6181 43.2718 19.871 43.0697 20.3849L39.7762 28.7607C39.5741 29.2746 39.8269 29.8551 40.3409 30.0572C40.8548 30.2593 41.4353 30.0065 41.6374 29.4926L44.565 22.0475L52.0101 24.975C52.5241 25.1772 53.1046 24.9243 53.3067 24.4104C53.5088 23.8964 53.256 23.3159 52.742 23.1138L44.3663 19.8202ZM33.5 84.5C34.314 85.0808 34.3141 85.0807 34.3142 85.0805C34.3143 85.0804 34.3145 85.0802 34.3147 85.0799C34.3151 85.0793 34.3157 85.0785 34.3164 85.0774C34.3179 85.0753 34.3201 85.0722 34.323 85.0682C34.3288 85.0601 34.3373 85.0481 34.3485 85.0323C34.3709 85.0008 34.404 84.9541 34.4472 84.893C34.5337 84.7707 34.6605 84.5905 34.8232 84.3579C35.1485 83.8926 35.617 83.2172 36.1913 82.3749C37.3397 80.6904 38.9125 78.3364 40.6099 75.6577C43.9921 70.3202 47.9153 63.6223 49.9337 58.358L48.0663 57.642C46.1253 62.7041 42.2985 69.2563 38.9205 74.5872C37.2379 77.2426 35.678 79.5774 34.5388 81.2482C33.9694 82.0834 33.5054 82.7523 33.1841 83.2119C33.0234 83.4416 32.8985 83.6191 32.8139 83.7387C32.7716 83.7986 32.7394 83.844 32.7179 83.8743C32.7072 83.8894 32.6991 83.9008 32.6937 83.9083C32.691 83.9121 32.6891 83.9148 32.6878 83.9167C32.6871 83.9176 32.6866 83.9182 32.6864 83.9186C32.6862 83.9189 32.6861 83.919 32.686 83.9191C32.686 83.9192 32.686 83.9192 33.5 84.5ZM49.9337 58.358C52.6812 51.1923 51.3517 41.6097 49.4406 33.993C48.4768 30.1518 47.3479 26.7468 46.4604 24.3026C46.0164 23.0798 45.6322 22.0957 45.3583 21.4157C45.2213 21.0756 45.1118 20.8115 45.0362 20.6315C44.9984 20.5414 44.9691 20.4724 44.949 20.4254C44.9389 20.402 44.9312 20.384 44.9258 20.3716C44.9232 20.3654 44.9211 20.3607 44.9197 20.3573C44.9189 20.3557 44.9184 20.3543 44.9179 20.3534C44.9177 20.3529 44.9175 20.3525 44.9174 20.3522C44.9173 20.3519 44.9172 20.3516 44.0003 20.7509C43.0835 21.1502 43.0835 21.1501 43.0835 21.1501C43.0835 21.1502 43.0836 21.1503 43.0837 21.1505C43.0839 21.151 43.0842 21.1518 43.0848 21.153C43.0858 21.1554 43.0874 21.1592 43.0897 21.1644C43.0942 21.1748 43.101 21.1908 43.1102 21.2122C43.1286 21.2552 43.1562 21.3201 43.1922 21.4058C43.2642 21.5774 43.37 21.8325 43.5031 22.163C43.7694 22.8241 44.1453 23.7865 44.5805 24.9852C45.4515 27.3839 46.5578 30.7216 47.5007 34.4797C49.4031 42.0615 50.5733 51.1034 48.0663 57.642L49.9337 58.358Z" fill="black" fill-opacity="0.31"/>
</svg>
