<svg id="visual" viewBox="0 0 900 600" width="900" height="600" xmlns="http://www.w3.org/2000/svg" xmlns:xlink="http://www.w3.org/1999/xlink" version="1.1"><rect x="0" y="0" width="900" height="600" fill="#002233"></rect><path d="M0 411L21.5 414C43 417 86 423 128.8 440.8C171.7 458.7 214.3 488.3 257.2 486.2C300 484 343 450 385.8 439.8C428.7 429.7 471.3 443.3 514.2 459.2C557 475 600 493 642.8 501.5C685.7 510 728.3 509 771.2 490.3C814 471.7 857 435.3 878.5 417.2L900 399L900 601L878.5 601C857 601 814 601 771.2 601C728.3 601 685.7 601 642.8 601C600 601 557 601 514.2 601C471.3 601 428.7 601 385.8 601C343 601 300 601 257.2 601C214.3 601 171.7 601 128.8 601C86 601 43 601 21.5 601L0 601Z" fill="#0066FF" stroke-linecap="round" stroke-linejoin="miter"></path></svg>