<svg width="464" height="457" viewBox="0 0 464 457" fill="none" xmlns="http://www.w3.org/2000/svg">
<g clip-path="url(#clip0_130_70)">
<rect x="331" y="307" width="83" height="154" fill="#FFC67B"/>
<circle cx="379" cy="320" r="5" fill="#1A0000"/>
<circle cx="379" cy="320" r="5" fill="#1A0000"/>
<circle cx="379" cy="320" r="5" fill="#1A0000"/>
<circle cx="360" cy="340" r="5" fill="#1A0000"/>
<circle cx="360" cy="340" r="5" fill="#1A0000"/>
<circle cx="360" cy="340" r="5" fill="#1A0000"/>
<circle cx="341" cy="360" r="5" fill="#1A0000"/>
<circle cx="341" cy="360" r="5" fill="#1A0000"/>
<circle cx="341" cy="360" r="5" fill="#1A0000"/>
<circle cx="341" cy="391" r="5" fill="#1A0000"/>
<circle cx="341" cy="391" r="5" fill="#1A0000"/>
<circle cx="341" cy="391" r="5" fill="#1A0000"/>
<circle cx="345" cy="422" r="5" fill="#1A0000"/>
<circle cx="345" cy="422" r="5" fill="#1A0000"/>
<circle cx="345" cy="422" r="5" fill="#1A0000"/>
<circle cx="370" cy="401" r="5" fill="#1A0000"/>
<circle cx="370" cy="401" r="5" fill="#1A0000"/>
<circle cx="370" cy="401" r="5" fill="#1A0000"/>
<circle cx="395" cy="380" r="5" fill="#1A0000"/>
<circle cx="395" cy="380" r="5" fill="#1A0000"/>
<circle cx="395" cy="380" r="5" fill="#1A0000"/>
<circle cx="400" cy="412" r="5" fill="#1A0000"/>
<circle cx="400" cy="412" r="5" fill="#1A0000"/>
<circle cx="400" cy="412" r="5" fill="#1A0000"/>
<circle cx="380" cy="432" r="5" fill="#1A0000"/>
<circle cx="380" cy="432" r="5" fill="#1A0000"/>
<circle cx="380" cy="432" r="5" fill="#1A0000"/>
<circle cx="405" cy="442" r="5" fill="#1A0000"/>
<circle cx="405" cy="442" r="5" fill="#1A0000"/>
<circle cx="405" cy="442" r="5" fill="#1A0000"/>
<circle cx="405" cy="330" r="5" fill="#1A0000"/>
<circle cx="405" cy="330" r="5" fill="#1A0000"/>
<circle cx="405" cy="330" r="5" fill="#1A0000"/>
<circle cx="385" cy="350" r="5" fill="#1A0000"/>
<circle cx="385" cy="350" r="5" fill="#1A0000"/>
<circle cx="385" cy="350" r="5" fill="#1A0000"/>
<circle cx="365" cy="370" r="5" fill="#1A0000"/>
<circle cx="365" cy="370" r="5" fill="#1A0000"/>
<circle cx="365" cy="370" r="5" fill="#1A0000"/>
<circle cx="355" cy="448" r="5" fill="#1A0000"/>
<circle cx="355" cy="448" r="5" fill="#1A0000"/>
<circle cx="355" cy="448" r="5" fill="#1A0000"/>
<path d="M371.03 181.255V202.663C368.024 207.822 365.076 214.528 362.19 222.925C362.19 222.925 366.612 236.027 371.03 251.858V297.139H260.676L253.011 306.788H232V349.201H266.257V446.824H273.373V349.201H293.49V446.824H300.607V349.201H370.348V446.824H377.464V349.201H404.507V446.824H411.623L411.339 349.201H418.819V181.255H371.03Z" fill="#CCCCCC"/>
<path d="M119.999 382.957C119.327 381.951 116.42 383.028 115.886 382.115C115.353 381.206 118.054 379.821 119.597 376.656C119.875 376.085 121.629 372.488 120.331 371.379C117.87 369.275 106.611 377.956 102.671 375.115C101.806 374.492 101.202 373.247 98.5847 371.226C97.5435 370.423 96.9139 370.06 96.3046 370.195C95.4401 370.386 95.3716 371.413 94.4445 373.432C93.0542 376.46 92.2319 376.278 91.4218 378.693C90.8205 380.487 90.9578 381.53 90.2502 381.733C89.2489 382.02 88.3272 380.118 87.0582 380.288C85.7632 380.462 84.9803 382.677 84.733 384.335C84.2689 387.447 85.5567 389.501 86.2704 391.66C87.046 394.007 87.5064 397.575 85.7152 402.627L67.9863 446.959C71.9003 437.862 83.2331 412.926 87.9952 403.659C89.3699 400.984 90.8878 398.271 94.0045 397.2C97.0051 396.169 101.126 396.784 106.38 395.661C106.993 395.53 108.696 395.145 108.91 394.256C109.088 393.522 108.086 393.112 108.24 392.423C108.446 391.5 110.416 391.489 112.836 390.424C114.543 389.673 115.606 388.78 116.52 388.012C116.796 387.78 120.893 384.295 119.999 382.957Z" fill="#F2F2F2"/>
<path d="M50.2481 406.295C49.4982 406.297 49.2549 407.874 48.596 407.844C47.9395 407.813 47.9526 406.237 46.6476 404.652C46.4123 404.366 44.9292 402.564 43.9409 402.81C42.0676 403.274 43.6198 410.684 40.9118 411.58C40.3175 411.777 39.4549 411.681 37.5823 412.238C36.8373 412.46 36.455 412.629 36.3538 412.934C36.2104 413.365 36.7585 413.692 37.6076 414.678C38.8811 416.157 38.5427 416.463 39.645 417.513C40.4633 418.292 41.0796 418.533 40.9878 418.9C40.8578 419.419 39.5399 419.272 39.2679 419.874C38.9904 420.488 39.9894 421.468 40.8351 422.054C42.4223 423.154 43.9294 423.186 45.3295 423.498C46.851 423.837 48.9573 424.666 51.2343 426.904L70.6353 447.418C66.7339 443.088 56.2134 430.957 52.4628 426.209C51.3801 424.838 50.3175 423.394 50.6246 421.727C50.9202 420.123 52.4496 418.505 53.3443 415.893C53.4488 415.588 53.7274 414.735 53.2978 414.385C52.9425 414.096 52.4267 414.414 52.0905 414.148C51.6396 413.792 52.2015 412.931 52.3109 411.569C52.3879 410.609 52.2008 409.888 52.0398 409.269C51.9913 409.082 51.2464 406.291 50.2481 406.295Z" fill="#F2F2F2"/>
<path d="M65.2096 409.275L64.7578 405.696L64.9642 405.424C65.9195 404.17 66.4064 402.944 66.4123 401.781C66.4132 401.596 66.4035 401.411 66.3938 401.223C66.3548 400.476 66.3061 399.548 66.8514 398.466C67.1572 397.862 68.0161 396.466 69.3073 396.639C69.655 396.682 69.9179 396.824 70.1175 396.99C70.1467 396.948 70.1769 396.907 70.209 396.862C70.6112 396.317 70.9296 396.084 71.2364 395.859C71.472 395.686 71.7155 395.508 72.0972 395.087C72.2647 394.902 72.3952 394.739 72.5052 394.603C72.8392 394.189 73.2755 393.697 74.0447 393.706C74.8666 393.74 75.297 394.343 75.5823 394.743C76.0916 395.455 76.3224 395.968 76.4753 396.309C76.5308 396.433 76.5941 396.573 76.6262 396.616C76.8911 396.962 79.0442 396.639 79.8553 396.521C81.6772 396.252 83.2538 396.018 83.9033 397.038C84.3688 397.767 84.0231 398.732 82.8448 399.982C82.4777 400.37 82.0872 400.666 81.7405 400.898C82.0278 401.05 82.2848 401.283 82.3891 401.65C82.6345 402.517 81.7941 403.387 79.8923 404.237C79.42 404.45 78.7841 404.733 77.8931 404.87C77.4734 404.934 77.0956 404.949 76.7723 404.958C76.7655 405.124 76.7217 405.304 76.6077 405.488C76.2737 406.033 75.5785 406.292 74.5307 406.23C73.3777 406.176 72.4283 405.981 71.5908 405.81C70.8595 405.661 70.2295 405.535 69.7348 405.565C68.8175 405.63 68.1105 406.282 67.2809 407.127L65.2096 409.275Z" fill="#F2F2F2"/>
<path d="M67.3055 387.962L63.5186 389.258L63.1705 389.15C61.5605 388.648 60.1013 388.541 58.832 388.831C58.6302 388.877 58.4311 388.932 58.2282 388.988C57.4243 389.211 56.425 389.488 55.1074 389.295C54.3723 389.185 52.6323 388.802 52.4932 387.65C52.4521 387.34 52.5399 387.079 52.6701 386.865C52.6175 386.851 52.5646 386.835 52.5075 386.819C51.8121 386.612 51.477 386.398 51.1543 386.191C50.9061 386.033 50.6503 385.869 50.0938 385.648C49.8498 385.551 49.6396 385.481 49.4629 385.421C48.9279 385.239 48.2803 384.989 48.0946 384.327C47.9239 383.612 48.4722 383.09 48.8349 382.744C49.4819 382.126 49.9829 381.798 50.3152 381.58C50.4368 381.501 50.5733 381.411 50.6123 381.372C50.9219 381.057 50.0235 379.291 49.6896 378.624C48.9336 377.129 48.2794 375.834 49.2261 375.018C49.9031 374.434 51.0419 374.486 52.7029 375.18C53.2199 375.397 53.641 375.657 53.9814 375.896C54.0743 375.611 54.2634 375.331 54.6364 375.148C55.5199 374.718 56.6806 375.218 58.0899 376.635C58.4414 376.987 58.9116 377.461 59.2864 378.191C59.4626 378.535 59.5754 378.856 59.6668 379.131C59.8494 379.095 60.0564 379.087 60.2869 379.138C60.9651 379.286 61.424 379.817 61.6219 380.733C61.856 381.736 61.8839 382.601 61.9099 383.363C61.9333 384.029 61.9556 384.601 62.1131 385.019C62.4174 385.789 63.3069 386.231 64.4386 386.729L67.3055 387.962Z" fill="#F2F2F2"/>
<path d="M65.2096 377.416L64.7578 373.837L64.9642 373.565C65.9195 372.311 66.4064 371.085 66.4123 369.922C66.4132 369.737 66.4035 369.552 66.3938 369.364C66.3548 368.617 66.3061 367.689 66.8514 366.607C67.1572 366.003 68.0161 364.607 69.3073 364.78C69.655 364.823 69.9179 364.965 70.1175 365.131C70.1467 365.089 70.1769 365.048 70.209 365.003C70.6112 364.458 70.9296 364.225 71.2364 364C71.472 363.827 71.7155 363.649 72.0972 363.228C72.2647 363.043 72.3952 362.88 72.5052 362.744C72.8392 362.33 73.2755 361.838 74.0447 361.847C74.8666 361.881 75.297 362.484 75.5823 362.884C76.0916 363.596 76.3224 364.109 76.4753 364.45C76.5308 364.574 76.5941 364.714 76.6262 364.757C76.8911 365.103 79.0442 364.78 79.8553 364.662C81.6772 364.393 83.2538 364.159 83.9033 365.179C84.3688 365.908 84.0231 366.873 82.8448 368.123C82.4777 368.512 82.0872 368.807 81.7405 369.039C82.0278 369.191 82.2848 369.424 82.3891 369.791C82.6345 370.658 81.7941 371.528 79.8923 372.378C79.42 372.591 78.7841 372.874 77.8931 373.011C77.4734 373.075 77.0956 373.09 76.7723 373.099C76.7655 373.265 76.7217 373.445 76.6077 373.629C76.2737 374.174 75.5785 374.433 74.5307 374.371C73.3777 374.317 72.4283 374.122 71.5908 373.951C70.8595 373.802 70.2295 373.676 69.7348 373.706C68.8175 373.771 68.1105 374.423 67.2809 375.268L65.2096 377.416Z" fill="#F2F2F2"/>
<path d="M69.3363 446.901L68.491 446.43L67.5056 446.531C67.49 446.449 67.4364 446.263 67.3556 445.971C66.9145 444.37 65.5697 439.499 64.4479 431.828C63.665 426.474 63.2219 420.969 63.1304 415.463C63.0388 409.95 63.3329 405.775 63.5686 402.42C63.7468 399.89 63.963 397.48 64.1752 395.133C64.74 388.862 65.2727 382.939 64.8763 376.381C64.7887 374.917 64.6046 371.87 62.5987 368.627C61.435 366.747 59.8322 365.077 57.834 363.667L59.0765 362.28C61.2821 363.839 63.0554 365.689 64.3476 367.777C66.5717 371.372 66.7723 374.692 66.8687 376.288C67.2718 382.961 66.7334 388.942 66.1627 395.273C65.9524 397.612 65.7362 400.011 65.559 402.531C65.3253 405.855 65.0341 409.993 65.1247 415.436C65.2143 420.875 65.6524 426.313 66.4247 431.6C67.5328 439.174 68.8581 443.973 69.2934 445.549C69.5252 446.391 69.5739 446.567 69.3363 446.901Z" fill="#F2F2F2"/>
<path d="M54.1765 366.479C54.0947 366.479 54.0119 366.477 53.9282 366.472C52.2299 366.391 50.6573 365.488 49.2531 363.791C48.5948 362.992 48.2579 362.082 47.586 360.265C47.4818 359.985 46.9754 358.564 46.6677 356.609C46.4661 355.332 46.4914 354.798 46.7767 354.326C47.0932 353.801 47.6054 353.434 48.1819 353.187C48.1566 353.018 48.177 352.843 48.2598 352.665C48.5997 351.927 49.5033 352.024 49.9922 352.07C50.2395 352.098 50.5482 352.134 50.8812 352.119C51.4051 352.096 51.6866 351.958 52.1131 351.751C52.5211 351.552 53.0284 351.305 53.7812 351.168C55.2652 350.893 56.5087 351.267 56.9187 351.389C59.0756 352.027 60.1389 353.515 61.3698 355.239C61.6152 355.584 62.4575 356.843 63.0135 358.568C63.4147 359.812 63.3583 360.365 63.2375 360.777C62.9921 361.622 62.4127 362.106 60.9413 363.174C59.4047 364.292 58.6335 364.852 57.9713 365.193C56.4298 365.983 55.4619 366.479 54.1765 366.479Z" fill="#F2F2F2"/>
<path d="M464 446.802C464 447.13 463.701 447.395 463.331 447.395H0V446.209H463.331C463.701 446.209 464 446.474 464 446.802Z" fill="#E6E6E6"/>
<path d="M208.957 128.742C204.247 123.858 197.59 122.056 194.088 124.717C190.586 127.378 191.567 133.493 196.279 138.378C198.131 140.352 200.49 141.904 203.156 142.904L223.407 163.374L234.028 154.735L212.937 135.472C212.235 132.979 210.87 130.671 208.957 128.742Z" fill="#FFB6B6"/>
<path d="M360.96 153.704C360.96 153.704 365.389 171.698 347.809 177.436C330.228 183.173 284.67 205.203 281.298 204.194C277.925 203.184 266.893 208.113 253.871 197.598C240.849 187.084 209.391 155.386 209.391 155.386L222.331 139.789L271.05 169.658C271.05 169.658 272.092 169.384 276.711 168.959C281.329 168.534 277.717 171.12 284.941 165.949C292.165 160.777 338.272 142.245 338.272 142.245C338.272 142.245 351.801 136.295 360.96 153.704Z" fill="#2F2E41"/>
<path d="M245.999 404.709L253.161 425.192L233.265 437.199L218.94 425.898C218.94 425.898 224.511 408.241 222.124 404.003L245.999 404.709Z" fill="#FFB6B6"/>
<path d="M347.069 114.42L358.48 136.761L325.093 155.18L323.194 128.546L347.069 114.42Z" fill="#FFB6B6"/>
<path opacity="0.1" d="M347.069 114.42L358.48 136.761L325.093 155.18L323.194 128.546L347.069 114.42Z" fill="black"/>
<path d="M333.948 134.337C347.337 134.337 358.192 124.703 358.192 112.82C358.192 100.936 347.337 91.3028 333.948 91.3028C320.558 91.3028 309.703 100.936 309.703 112.82C309.703 124.703 320.558 134.337 333.948 134.337Z" fill="#FFB6B6"/>
<path d="M324.786 150.442L359.006 129.959L353.436 303.002C353.436 303.002 325.184 259.565 303.696 257.446C303.696 257.446 306.084 252.502 307.675 249.677C309.267 246.851 311.655 232.725 311.655 232.725L322.796 156.445L324.786 150.442Z" fill="#6C63FF"/>
<path d="M352.242 329.488L322.001 234.844C322.001 234.844 326.776 158.564 359.007 129.959L366.567 140.2C366.567 140.2 374.043 141.185 372.693 145.637C371.342 150.089 402.38 313.95 402.38 313.95H370.211C370.211 313.95 367.363 329.488 352.242 329.488Z" fill="#2F2E41"/>
<path d="M324.786 150.442V147.616C324.786 147.616 310.063 148.676 309.267 156.445C308.471 164.215 302.105 194.585 308.471 212.949L300.513 224.25L294.942 251.089L312.451 255.327L322.001 190.15C322.001 190.15 328.367 155.739 324.786 150.442Z" fill="#2F2E41"/>
<path d="M353.038 284.992C353.038 284.992 366.567 319.6 337.918 320.307C309.268 321.013 264.636 321.013 264.636 321.013L242.418 331.607L248.785 408.594L204.218 409.3C204.218 409.3 189.893 314.656 202.627 303.355C215.36 292.055 251.968 280.048 251.968 280.048L294.147 260.977L306.009 248.197L353.038 284.992Z" fill="#2F2E41"/>
<path d="M354.661 125.368C356.352 124.835 372.177 108.374 359.006 97.4693C359.006 97.4693 353.874 84.1476 333.407 85.5449C312.939 86.9422 307.429 96.8774 307.429 102.04C307.429 107.203 312.848 113.008 312.848 113.008C312.848 113.008 309.003 98.8193 317.662 99.5179C326.322 100.217 323.96 103.011 330.258 101.614C336.556 100.217 342.853 102.313 342.853 102.313L349.151 104.408V112.933C349.151 112.933 351.897 110.977 352.098 112.933C352.3 114.888 354.661 125.368 354.661 125.368Z" fill="#2F2E41"/>
<path d="M217.747 299.824L216.951 321.719L185.914 316.775C185.914 316.775 199.241 297.31 197.352 291.857L217.747 299.824Z" fill="#FFB6B6"/>
<path d="M214.564 316.775C214.564 316.775 220.135 316.775 220.135 319.6C220.135 322.425 228.889 344.321 212.176 345.027C195.464 345.733 196.26 342.908 196.26 342.908C196.26 342.908 149.306 361.978 132.594 333.726C132.594 333.726 128.614 326.663 138.164 325.251C147.714 323.838 185.914 312.012 185.914 312.012C185.914 312.012 208.197 319.6 214.564 316.775Z" fill="#2F2E41"/>
<path d="M246.795 425.192C246.795 425.192 252.365 419.202 253.161 419.725C253.957 420.248 271.465 437.905 259.528 442.849C247.59 447.793 241.224 449.912 241.224 449.912L238.04 445.675C238.04 445.675 214.166 466.157 177.557 452.031C177.557 452.031 174.374 445.675 181.537 444.262C188.699 442.849 218.941 421.327 218.941 421.327C218.941 421.327 231.674 429.43 238.04 428.017C244.407 426.605 246.795 425.192 246.795 425.192Z" fill="#2F2E41"/>
<path d="M303.697 255.327C303.697 255.327 229.287 221.778 222.92 221.778C216.554 221.778 204.384 224.103 201.715 234.947C199.045 245.792 183.129 298.058 183.129 298.058L222.125 306.534L237.245 269.1L261.916 288.876L303.697 266.764V255.327Z" fill="#2F2E41"/>
<path d="M268.658 242.367C261.492 243.3 256.225 247.339 256.895 251.387C257.566 255.434 263.918 257.958 271.087 257.023C273.957 256.685 276.693 255.741 279.068 254.272L309.377 249.976L306.803 237.395L277.196 242.966C274.445 242.164 271.517 241.958 268.658 242.367Z" fill="#FFB6B6"/>
<path d="M373.478 141.531C373.478 141.531 392.993 147.796 389.092 164.056C385.191 180.315 381.91 226.268 379.15 228.263C376.39 230.257 375.208 241.169 358.243 245.342C341.279 249.516 292.597 267.991 292.597 267.991L286.318 238.212L340.763 217.549C340.763 217.549 341.057 216.621 343.114 212.926C345.17 209.232 345.71 213.322 344.631 205.141C343.551 196.96 350.46 152.46 350.46 152.46C350.46 152.46 351.999 139.129 373.478 141.531Z" fill="#2F2E41"/>
<path d="M197.256 9.843C197.157 9.92779 197.067 10.017 196.969 10.1025C181.792 -3.26392 157.349 -3.38151 142.01 9.83795C126.616 23.1095 126.095 44.8964 140.842 58.7349L140.833 58.7432L141.2 59.0788L195.505 108.703L251.798 60.1806L251.641 60.0376C251.736 59.9576 251.834 59.8835 251.928 59.8024C267.473 46.4035 267.835 24.3577 252.738 10.5617C237.641 -3.2342 212.8 -3.55596 197.256 9.843Z" fill="#6C63FF"/>
</g>
<defs>
<clipPath id="clip0_130_70">
<rect width="464" height="457" fill="white"/>
</clipPath>
</defs>
</svg>
