<svg width="74" height="60" viewBox="0 0 74 60" fill="none" xmlns="http://www.w3.org/2000/svg">
<rect width="73.2496" height="59.9127" rx="10" fill="#FF6B81"/>
<path d="M16 31C16 29.9391 16.4214 28.9217 17.1716 28.1716C17.9217 27.4214 18.9391 27 20 27H27V52H16V31Z" fill="#985184"/>
<path d="M38 14C38 11.79 39.876 10 42.19 10H58V48C58 50.21 56.124 52 53.81 52H38V14Z" fill="#FBB945"/>
<path d="M27 23.067C27 20.821 28.876 19 31.19 19H47V47.933C47 50.179 45.124 52 42.81 52H27V23.067Z" fill="#FC868B"/>
<path d="M38 52H42.81C45.124 52 47 50.179 47 47.933V19H38V52Z" fill="#F86126"/>
<path d="M27 52L31.995 51.998C33.0568 51.998 34.0752 51.5763 34.8263 50.8257C35.5773 50.075 35.9995 49.0568 36 47.995V27H27V52Z" fill="#962B48"/>
</svg>
