<svg width="74" height="60" viewBox="0 0 74 60" fill="none" xmlns="http://www.w3.org/2000/svg">
<rect width="73.2496" height="59.9127" rx="10" fill="#FF6B81"/>
<path d="M16 18C16 16.9391 16.4214 15.9217 17.1716 15.1716C17.9217 14.4214 18.9391 14 20 14H37V31C37 32.0609 36.5786 33.0783 35.8284 33.8284C35.0783 34.5786 34.0609 35 33 35H16V18Z" fill="#985184"/>
<path d="M16 45C16 43.9391 16.4214 42.9217 17.1716 42.1716C17.9217 41.4214 18.9391 41 20 41H31V52C31 53.0609 30.5786 54.0783 29.8284 54.8284C29.0783 55.5786 28.0609 56 27 56H16V45Z" fill="#088BF5"/>
<path d="M37 56H41C42.0609 56 43.0783 55.5786 43.8284 54.8284C44.5786 54.0783 45 53.0609 45 52V41H41C39.9391 41 38.9217 41.4214 38.1716 42.1716C37.4214 42.9217 37 43.9391 37 45V56Z" fill="#1AD3BB"/>
<path d="M43 17V21C43 22.0609 43.4214 23.0783 44.1716 23.8284C44.9217 24.5786 45.9391 25 47 25H58V21C58 19.9391 57.5786 18.9217 56.8284 18.1716C56.0783 17.4214 55.0609 17 54 17H43Z" fill="#F9464C"/>
<path d="M43 14V18C43 19.0609 43.4214 20.0783 44.1716 20.8284C44.9217 21.5786 45.9391 22 47 22H58V18C58 16.9391 57.5786 15.9217 56.8284 15.1716C56.0783 14.4214 55.0609 14 54 14H43Z" fill="#FC868B"/>
<path d="M50 56H54C55.0609 56 56.0783 55.5786 56.8284 54.8284C57.5786 54.0783 58 53.0609 58 52V41H54C52.9391 41 51.9217 41.4214 51.1716 42.1716C50.4214 42.9217 50 43.9391 50 45V56Z" fill="#03AF89"/>
</svg>
