<svg width="74" height="60" viewBox="0 0 74 60" fill="none" xmlns="http://www.w3.org/2000/svg">
<path d="M29.6634 23.1846C30.3059 22.5738 30.7638 21.81 30.9889 20.9731C31.2141 20.1363 31.1983 19.2573 30.9431 18.4283C30.688 17.5993 30.203 16.8507 29.5389 16.2612C28.8748 15.6716 28.056 15.2628 27.1685 15.0774C26.281 14.8921 25.3574 14.9371 24.4944 15.2077C23.6315 15.4784 22.8611 15.9647 22.2638 16.6157C21.6666 17.2667 21.2647 18.0585 21.1001 18.9079C20.9355 19.7574 21.0143 20.6333 21.3283 21.4439C17.3635 27.9396 18.3072 36.3994 24.1578 41.9607L24.1944 41.9956L27.546 38.8097L27.5094 38.7748C23.4415 34.9089 22.6034 29.1354 24.9933 24.4824C25.8238 24.6565 26.687 24.6288 27.5032 24.402C28.3194 24.1752 29.0624 23.7565 29.6634 23.1846Z" fill="#F78613"/>
<path d="M24.1946 41.9956C29.1662 46.6955 36.3225 48.0411 42.5445 46.0324L38.6247 42.3065C36.6194 42.5773 34.5754 42.4025 32.6531 41.7957C30.7309 41.189 28.9828 40.1669 27.5462 38.8097L24.1946 41.9956Z" fill="#FBB945"/>
<path d="M48.6343 35.3242C47.5503 35.0494 46.4011 35.1245 45.3669 35.5376C44.3326 35.9508 43.4719 36.6786 42.9198 37.6069C42.3677 38.5351 42.1554 39.6114 42.3162 40.6668C42.4771 41.7221 43.0019 42.6969 43.8084 43.4381C44.615 44.1793 45.6575 44.645 46.7726 44.7622C47.8876 44.8794 49.012 44.6414 49.9694 44.0856C50.9268 43.5298 51.663 42.6875 52.0625 41.6911C52.462 40.6946 52.5021 39.6002 52.1767 38.5797C56.2131 32.0833 55.3051 23.5797 49.4537 17.986L46.1021 21.1719C50.1078 25.0095 50.9519 30.7044 48.6352 35.3242H48.6343Z" fill="#03AF89"/>
<path d="M30.8926 13.9257L34.7876 17.6281C36.834 17.3267 38.9265 17.4906 40.8933 18.1065C42.8602 18.7223 44.6456 19.7726 46.1029 21.171L49.4545 17.9851L49.4179 17.9503C44.408 13.1889 37.1614 11.8465 30.8926 13.9257Z" fill="#1AD3BB"/>
<rect width="73.2496" height="59.9127" rx="10" fill="#FF6B81"/>
<path d="M33.5488 13.6725L40.4058 17.6725L24.0488 28.6725V44.6725L24.5488 50.4225L15.5488 45.1725V24.1725L33.5488 13.6725Z" fill="#FBB945"/>
<path d="M26.6358 51.6395L20.4978 48.0595V27.1725L38.5948 16.6155L44.8778 20.2805L30.5498 33.1725L26.6358 51.6395Z" fill="#F86126"/>
<path d="M44.8768 20.2825L51.5488 24.1725V45.1725L33.5488 55.6725L26.6348 51.6405V30.9225L44.8768 20.2805V20.2825Z" fill="#985184"/>
</svg>
