<svg width="74" height="60" viewBox="0 0 74 60" fill="none" xmlns="http://www.w3.org/2000/svg">
<rect width="73.2496" height="59.9127" rx="10" fill="#FF6B81"/>
<path d="M29.6634 23.1846C30.3059 22.5738 30.7638 21.8099 30.9889 20.9731C31.2141 20.1363 31.1983 19.2573 30.9431 18.4283C30.688 17.5992 30.203 16.8507 29.5389 16.2612C28.8748 15.6716 28.056 15.2627 27.1685 15.0774C26.281 14.892 25.3574 14.937 24.4944 15.2077C23.6315 15.4783 22.8611 15.9647 22.2638 16.6157C21.6666 17.2667 21.2647 18.0584 21.1001 18.9079C20.9355 19.7574 21.0143 20.6333 21.3283 21.4439C17.3635 27.9395 18.3072 36.3994 24.1578 41.9607L24.1944 41.9955L27.546 38.8096L27.5094 38.7748C23.4415 34.9088 22.6034 29.1354 24.9933 24.4824C25.8238 24.6565 26.687 24.6288 27.5032 24.402C28.3194 24.1751 29.0624 23.7564 29.6634 23.1846Z" fill="#F78613"/>
<path d="M24.1946 41.9955C29.1662 46.6954 36.3225 48.041 42.5445 46.0323L38.6247 42.3064C36.6194 42.5773 34.5754 42.4024 32.6531 41.7957C30.7309 41.189 28.9828 40.1669 27.5462 38.8096L24.1946 41.9955Z" fill="#FBB945"/>
<path d="M48.6343 35.3242C47.5503 35.0494 46.4011 35.1245 45.3669 35.5376C44.3326 35.9508 43.4719 36.6786 42.9198 37.6069C42.3677 38.5351 42.1554 39.6114 42.3162 40.6668C42.4771 41.7221 43.0019 42.6969 43.8084 43.4381C44.615 44.1793 45.6575 44.645 46.7726 44.7622C47.8876 44.8794 49.012 44.6414 49.9694 44.0856C50.9268 43.5298 51.663 42.6875 52.0625 41.6911C52.462 40.6946 52.5021 39.6002 52.1767 38.5797C56.2131 32.0833 55.3051 23.5797 49.4537 17.986L46.1021 21.1719C50.1078 25.0095 50.9519 30.7044 48.6352 35.3242H48.6343Z" fill="#03AF89"/>
<path d="M30.8926 13.9257L34.7876 17.6281C36.834 17.3267 38.9265 17.4906 40.8933 18.1065C42.8602 18.7223 44.6456 19.7726 46.1029 21.171L49.4545 17.9851L49.4179 17.9503C44.408 13.1889 37.1614 11.8465 30.8926 13.9257Z" fill="#1AD3BB"/>
<rect width="73.2496" height="59.9127" rx="10" fill="#FF6B81"/>
<path d="M42.1248 18.5795C42.8803 17.8242 43.9049 17.3998 44.9733 17.3998C46.0416 17.3998 47.0662 17.8242 47.8218 18.5795L56.3688 27.1255C56.7429 27.4996 57.0397 27.9438 57.2422 28.4326C57.4447 28.9214 57.5489 29.4454 57.5489 29.9745C57.5489 30.5036 57.4447 31.0275 57.2422 31.5164C57.0397 32.0052 56.7429 32.4493 56.3688 32.8235L40.6998 48.4935C40.3256 48.8676 39.8815 49.1644 39.3926 49.3669C38.9038 49.5694 38.3799 49.6736 37.8508 49.6736C37.3217 49.6736 36.7977 49.5694 36.3089 49.3669C35.8201 49.1644 35.3759 48.8676 35.0018 48.4935L26.4558 39.9465C26.0816 39.5723 25.7848 39.1282 25.5823 38.6394C25.3799 38.1505 25.2756 37.6266 25.2756 37.0975C25.2756 36.5684 25.3799 36.0444 25.5823 35.5556C25.7848 35.0668 26.0816 34.6226 26.4558 34.2485L42.1248 18.5795Z" fill="#FBB945"/>
<path d="M30.2698 12.7195C30.6789 11.7324 31.4632 10.9482 32.4504 10.5394C33.4376 10.1306 34.5467 10.1306 35.5338 10.5395L46.7008 15.1645C47.6879 15.5735 48.4721 16.3579 48.881 17.345C49.2898 18.3322 49.2897 19.4414 48.8808 20.4285L40.4008 40.9005C39.992 41.8875 39.2079 42.6718 38.2209 43.0808C37.234 43.4898 36.125 43.49 35.1378 43.0815L23.9708 38.4555C22.9837 38.0465 22.1995 37.2621 21.7907 36.275C21.3819 35.2878 21.3819 34.1786 21.7908 33.1915L30.2698 12.7195Z" fill="#FC868B"/>
<path d="M49.0757 19.8325C49.0277 20.0325 48.9627 20.2325 48.8817 20.4285L40.4017 40.9005C40.1992 41.3894 39.9023 41.8336 39.5281 42.2077C39.1539 42.5819 38.7097 42.8786 38.2208 43.0811C37.7319 43.2835 37.2078 43.3877 36.6787 43.3876C36.1495 43.3875 35.6255 43.2831 35.1367 43.0805L25.9007 39.2555C25.4106 38.482 25.1986 37.5647 25.2994 36.6546C25.4003 35.7445 25.8081 34.8959 26.4557 34.2485L42.1247 18.5785C42.8803 17.8232 43.9049 17.3989 44.9732 17.3989C46.0415 17.3989 47.0662 17.8232 47.8217 18.5785L49.0757 19.8325Z" fill="#F86126"/>
<path d="M15.5488 11.7015C15.5488 10.6329 15.9733 9.60814 16.7289 8.85255C17.4845 8.09697 18.5093 7.67249 19.5778 7.67249H31.6648C32.7334 7.67249 33.7582 8.09697 34.5138 8.85255C35.2693 9.60814 35.6938 10.6329 35.6938 11.7015V33.8615C35.6937 34.3906 35.5894 34.9145 35.3868 35.4032C35.1842 35.892 34.8873 36.3361 34.5131 36.7101C34.1388 37.0842 33.6946 37.3808 33.2057 37.5832C32.7169 37.7855 32.1929 37.8896 31.6638 37.8895H19.5788C19.0496 37.8896 18.5256 37.7855 18.0367 37.5831C17.5478 37.3807 17.1035 37.0839 16.7292 36.7098C16.355 36.3356 16.0582 35.8914 15.8556 35.4025C15.6531 34.9137 15.5488 34.3897 15.5488 33.8605V11.7015Z" fill="#2EBCFA"/>
<path d="M35.5217 10.5335C35.6337 10.9035 35.6937 11.2955 35.6937 11.7015V33.8615C35.6937 34.3906 35.5895 34.9145 35.387 35.4033C35.1845 35.8921 34.8878 36.3363 34.5136 36.7104C34.1395 37.0845 33.6954 37.3813 33.2065 37.5838C32.7177 37.7863 32.1938 37.8905 31.6647 37.8905H23.0067C22.3208 37.3459 21.831 36.5926 21.6114 35.7448C21.3918 34.8969 21.4544 34.0006 21.7897 33.1915L30.2697 12.7195C30.6777 11.7343 31.4595 10.951 32.444 10.5412C33.4285 10.1315 34.5352 10.1287 35.5217 10.5335Z" fill="#2D6388"/>
</svg>
