<svg width="74" height="60" viewBox="0 0 74 60" fill="none" xmlns="http://www.w3.org/2000/svg">
<rect width="73.2496" height="59.9127" rx="10" fill="#FF6B81"/>
<g clip-path="url(#clip0_195_6)">
<path d="M61.873 19C65.393 19.041 67.377 23.474 64.886 25.964L56.462 34.383L52.5 37L41 19H61.873ZM26.946 35.79C26.577 36.1588 26.2844 36.5968 26.0847 37.0787C25.885 37.5607 25.7822 38.0773 25.7822 38.599C25.7822 39.1207 25.885 39.6373 26.0847 40.1193C26.2844 40.6012 26.577 41.0392 26.946 41.408L35.379 49.838C36.1247 50.5834 37.136 51.0022 38.1905 51.0022C39.2449 51.0022 40.2562 50.5834 41.002 49.838L39.5 46L31 37L26.945 35.788L26.946 35.79Z" fill="#985184"/>
<path d="M17.1141 25.964C14.6231 23.474 16.6081 19.041 20.1281 19H41.0001L56.4611 34.383C56.8303 34.7519 57.1232 35.1899 57.3231 35.6721C57.5229 36.1542 57.6258 36.6711 57.6258 37.193C57.6258 37.7149 57.5229 38.2318 57.3231 38.7139C57.1232 39.1961 56.8303 39.6341 56.4611 40.003L46.6211 49.836C45.8754 50.5808 44.8645 50.9992 43.8106 50.9992C42.7566 50.9992 41.7458 50.5808 41.0001 49.836L17.1141 25.964Z" fill="#1AD3BB"/>
<path d="M41.0001 49.837C41.3694 49.4681 41.6623 49.0301 41.8621 48.5479C42.062 48.0658 42.1649 47.5489 42.1649 47.027C42.1649 46.5051 42.062 45.9882 41.8621 45.5061C41.6623 45.0239 41.3694 44.5859 41.0001 44.217L32.5661 35.789C31.8203 35.0436 30.8091 34.6248 29.7546 34.6248C28.7002 34.6248 27.6889 35.0436 26.9431 35.789L41.0001 49.837ZM33.6201 26.306L41.0001 19L50.1361 28.062C49.0174 26.9444 47.5009 26.3167 45.9196 26.3167C44.3384 26.3167 42.8218 26.9444 41.7031 28.062L38.5401 31.222C37.8875 31.8742 37.0027 32.2405 36.0801 32.2405C35.1575 32.2405 34.2727 31.8742 33.6201 31.222C33.2972 30.8993 33.041 30.5161 32.8662 30.0944C32.6915 29.6726 32.6015 29.2205 32.6015 28.764C32.6015 28.3075 32.6915 27.8554 32.8662 27.4336C33.041 27.0119 33.2972 26.6287 33.6201 26.306Z" fill="#005E7A"/>
</g>
<defs>
<clipPath id="clip0_195_6">
<rect width="50" height="50" fill="white" transform="translate(16 10)"/>
</clipPath>
</defs>
</svg>
