<svg width="74" height="61" viewBox="0 0 74 61" fill="none" xmlns="http://www.w3.org/2000/svg">
<rect x="0.451172" y="0.327515" width="73.2496" height="59.9127" rx="10" fill="#FF6B81"/>
<path d="M30.1146 23.5121C30.7571 22.9013 31.2149 22.1375 31.4401 21.3006C31.6652 20.4638 31.6494 19.5848 31.3943 18.7558C31.1392 17.9268 30.6541 17.1783 29.99 16.5887C29.3259 15.9991 28.5072 15.5903 27.6197 15.4049C26.7322 15.2196 25.8085 15.2646 24.9456 15.5352C24.0827 15.8059 23.3122 16.2922 22.715 16.9432C22.1178 17.5942 21.7158 18.386 21.5512 19.2355C21.3866 20.0849 21.4655 20.9609 21.7795 21.7714C17.8146 28.2671 18.7584 36.7269 24.609 42.2883L24.6456 42.3231L27.9972 39.1372L27.9605 39.1024C23.8926 35.2364 23.0545 29.4629 25.4445 24.81C26.275 24.984 27.1382 24.9563 27.9544 24.7295C28.7706 24.5027 29.5136 24.084 30.1146 23.5121Z" fill="#F78613"/>
<path d="M24.6458 42.3231C29.6174 47.023 36.7737 48.3686 42.9956 46.3599L39.0759 42.634C37.0706 42.9048 35.0265 42.73 33.1043 42.1232C31.182 41.5165 29.4339 40.4944 27.9973 39.1372L24.6458 42.3231Z" fill="#FBB945"/>
<path d="M49.0855 35.6517C48.0015 35.377 46.8523 35.452 45.818 35.8652C44.7838 36.2783 43.9231 37.0061 43.371 37.9344C42.8189 38.8627 42.6066 39.9389 42.7674 40.9943C42.9282 42.0496 43.4531 43.0244 44.2596 43.7656C45.0661 44.5068 46.1087 44.9726 47.2237 45.0897C48.3388 45.2069 49.4632 44.9689 50.4206 44.4131C51.378 43.8573 52.1142 43.015 52.5137 42.0186C52.9131 41.0221 52.9533 39.9278 52.6279 38.9072C56.6643 32.4108 55.7563 23.9072 49.9049 18.3135L46.5533 21.4994C50.559 25.337 51.4031 31.032 49.0863 35.6517H49.0855Z" fill="#03AF89"/>
<path d="M31.3438 14.2532L35.2388 17.9556C37.2852 17.6542 39.3776 17.8182 41.3445 18.434C43.3114 19.0499 45.0967 20.1001 46.5541 21.4986L49.9057 18.3127L49.8691 18.2778C44.8592 13.5164 37.6126 12.174 31.3438 14.2532Z" fill="#1AD3BB"/>
</svg>
