<svg id="visual" viewBox="0 0 900 600" width="900" height="600" xmlns="http://www.w3.org/2000/svg" xmlns:xlink="http://www.w3.org/1999/xlink" version="1.1"><rect x="0" y="0" width="900" height="600" fill="#EAEBEA"></rect><path d="M0 551L21.5 541.2C43 531.3 86 511.7 128.8 505.8C171.7 500 214.3 508 257.2 516.3C300 524.7 343 533.3 385.8 534.7C428.7 536 471.3 530 514.2 517.3C557 504.7 600 485.3 642.8 481.3C685.7 477.3 728.3 488.7 771.2 495.8C814 503 857 506 878.5 507.5L900 509L900 601L878.5 601C857 601 814 601 771.2 601C728.3 601 685.7 601 642.8 601C600 601 557 601 514.2 601C471.3 601 428.7 601 385.8 601C343 601 300 601 257.2 601C214.3 601 171.7 601 128.8 601C86 601 43 601 21.5 601L0 601Z" fill="#6600FF" stroke-linecap="round" stroke-linejoin="miter"></path></svg>