<svg width="48" height="48" viewBox="0 0 48 48" fill="none" xmlns="http://www.w3.org/2000/svg">
<path fill-rule="evenodd" clip-rule="evenodd" d="M22.035 38C21.3202 38 20.7104 37.4694 20.594 36.746C20.4868 36.1608 20.076 35.6826 19.5234 35.5C19.0732 35.3414 18.6329 35.1544 18.2052 34.94C17.6963 34.673 17.0858 34.713 16.614 35.044C16.0431 35.465 15.2589 35.3998 14.7615 34.89L12.8271 32.906C12.3065 32.372 12.2389 31.5302 12.6672 30.916C12.9976 30.421 13.0451 29.7828 12.792 29.242C12.6252 28.8664 12.4781 28.4818 12.3513 28.09C12.1697 27.4726 11.6684 27.0102 11.0507 26.89C10.3057 26.768 9.7558 26.1118 9.75002 25.338V22.856C9.74606 21.9642 10.3741 21.2014 11.232 21.056C11.8829 20.929 12.4263 20.4718 12.675 19.842C12.7491 19.6647 12.8271 19.4887 12.909 19.314C13.2398 18.6609 13.1941 17.8742 12.7901 17.266C12.2848 16.5458 12.3624 15.5562 12.9734 14.928L14.3949 13.47C15.096 12.7506 16.2018 12.6575 17.0079 13.25L17.0528 13.282C17.6547 13.6975 18.4207 13.7728 19.0886 13.482C19.8031 13.2182 20.3298 12.5885 20.475 11.824L20.4946 11.756C20.655 10.7439 21.5072 10.0004 22.507 10H24.223C25.2496 9.99952 26.1258 10.7611 26.2938 11.8L26.325 11.94C26.4628 12.6723 26.9622 13.2784 27.6432 13.54C28.2996 13.8289 29.0544 13.7535 29.644 13.34L29.7414 13.268C30.5684 12.6567 31.7056 12.7507 32.4266 13.49L33.735 14.834C34.3908 15.5103 34.4732 16.5739 33.93 17.348C33.5044 17.995 33.4502 18.8265 33.7876 19.526L33.8716 19.726C34.1448 20.409 34.7362 20.904 35.4432 21.042C36.3674 21.1966 37.047 22.0138 37.05 22.974V25.2C37.0498 26.0468 36.4526 26.7692 35.6382 26.908C34.9684 27.0398 34.4228 27.5372 34.2166 28.204C34.1256 28.4706 34.0242 28.7374 33.9124 29.004C33.6522 29.59 33.71 30.2728 34.0646 30.804C34.5324 31.4716 34.4598 32.3886 33.893 32.97L32.0776 34.834C31.5584 35.3664 30.7396 35.435 30.1432 34.996C29.6452 34.647 29.0002 34.6086 28.4662 34.896C28.0856 35.0894 27.695 35.261 27.2962 35.41C26.7384 35.6074 26.3272 36.097 26.2198 36.692C26.106 37.4406 25.4802 37.9944 24.7416 38H22.035Z" stroke="black" stroke-width="3" stroke-linecap="round" stroke-linejoin="round"/>
<path fill-rule="evenodd" clip-rule="evenodd" d="M27.9493 24C27.9493 26.577 25.9125 28.666 23.3999 28.666C20.8873 28.666 18.8506 26.577 18.8506 24C18.8506 21.423 20.8873 19.334 23.3999 19.334C25.9125 19.334 27.9493 21.423 27.9493 24Z" stroke="black" stroke-width="3" stroke-linecap="round" stroke-linejoin="round"/>
</svg>
